<svg xmlns="http://www.w3.org/2000/svg" width="71" height="140" viewBox="0 0 71 140" fill="none">
  <path fill-rule="evenodd" clip-rule="evenodd" d="M0.565186 139.999C0.71001 140 0.854938 140 0.999969 140C39.6599 140 71 108.66 71 70C71 31.3401 39.6599 0 0.999969 0C0.854938 0 0.71001 0.000441064 0.565186 0.00132192V6.00152C0.709998 6.00051 0.854927 6 0.999969 6C35.8179 6 65 35.182 65 70C65 87.292 57.0816 102.958 45.8079 114.348C34.3816 125.892 18.526 134 0.999969 134C0.854927 134 0.709998 133.999 0.565186 133.998V139.999Z" fill="#004DFF" style="fill:#004DFF;fill:color(display-p3 0.0000 0.3000 1.0000);fill-opacity:1;"/>
</svg>