<svg width="20" height="20" viewBox="0 0 24 24" fill="none" xmlns="http://www.w3.org/2000/svg">
<path d="M16.9539 11.9661C16.9539 14.7084 14.7307 16.9316 11.9884 16.9316C9.24599 16.9316 7.02285 14.7084 7.02285 11.9661C7.02285 9.22368 9.24599 7.00054 11.9884 7.00054C14.7307 7.00054 16.9539 9.22368 16.9539 11.9661Z" fill="#EEA992" style="fill:#EEA992;fill:color(display-p3 0.9350 0.6631 0.5725);fill-opacity:1;"/>
<path d="M12.0005 3.62069V3M12.0005 21V20.3793M20.3798 12H21.0005M3.00049 12H3.62118M17.9261 6.07501L18.365 5.63611M5.63595 18.3639L6.07484 17.925M17.9261 17.925L18.365 18.3639M5.63595 5.63607L6.07484 6.07496M16.9539 11.9661C16.9539 14.7084 14.7307 16.9316 11.9884 16.9316C9.24598 16.9316 7.02285 14.7084 7.02285 11.9661C7.02285 9.22368 9.24598 7.00054 11.9884 7.00054C14.7307 7.00054 16.9539 9.22368 16.9539 11.9661Z" stroke="#EEA992" style="stroke:#EEA992;stroke:color(display-p3 0.9350 0.6631 0.5725);stroke-opacity:1;" stroke-width="1.8" stroke-linecap="round"/>
</svg>
