<svg width="20" height="20" viewBox="0 0 24 24" fill="none" xmlns="http://www.w3.org/2000/svg">
<path fill-rule="evenodd" clip-rule="evenodd" d="M22.6665 9.97779C22.6665 9.04504 21.9024 8.2889 20.9598 8.2889L20.5331 8.28895L20.5331 15.0445L20.9598 15.0445C21.9024 15.0445 22.6665 14.2883 22.6665 13.3556L22.6665 9.97779ZM17.5465 5.33334C18.4834 5.33334 19.244 6.08046 19.2531 7.00551L19.2531 16.3279C19.244 17.2529 18.4834 18 17.5465 18C16.6039 18 15.8398 17.2439 15.8398 16.3111L15.8398 13.7778L15.8397 13.7778L15.8397 9.55557L15.8398 9.55557L15.8398 7.02223C15.8398 6.08948 16.6039 5.33334 17.5465 5.33334ZM14.5597 9.55557L9.43954 9.55557L9.43954 13.7778L14.5597 13.7778L14.5597 9.55557ZM6.45289 5.33334C7.38985 5.33334 8.15047 6.08049 8.15951 7.00557L8.15951 16.3278C8.15047 17.2529 7.38985 18 6.45289 18C5.5103 18 4.74618 17.2439 4.74618 16.3111L4.74618 15.0447L4.7461 15.0447L4.7461 8.28915L4.74618 8.28915L4.74618 7.02223C4.74618 6.08948 5.5103 5.33334 6.45289 5.33334ZM3.46607 8.28915L3.03987 8.28915C2.09729 8.28915 1.33317 9.0453 1.33317 9.97804L1.33317 13.3558C1.33317 14.2886 2.09729 15.0447 3.03987 15.0447L3.46607 15.0447L3.46607 8.28915Z" fill="#004DFF" style="fill:#004DFF;fill:color(display-p3 0.0000 0.3000 1.0000);fill-opacity:1;"/>
</svg>
