<svg width="24" height="24" viewBox="0 0 24 24" fill="none" xmlns="http://www.w3.org/2000/svg">
<path d="M19 10.3636C19 14.6521 15.0753 18.4819 13.1033 20.1354C12.4583 20.6764 11.5417 20.6764 10.8967 20.1354C8.92474 18.4819 5 14.6521 5 10.3636C5 8.41068 5.7375 6.53771 7.05025 5.15676C8.36301 3.77581 10.1435 3 12 3C13.8565 3 15.637 3.77581 16.9497 5.15676C18.2625 6.53771 19 8.41068 19 10.3636Z" fill="#004DFF" stroke="#004DFF" style="fill:#004DFF;fill:color(display-p3 0.0000 0.3000 1.0000);fill-opacity:1;stroke:#004DFF;stroke:color(display-p3 0.0000 0.3000 1.0000);stroke-opacity:1;" stroke-linecap="round" stroke-linejoin="round"/>
<path d="M12 13C13.6569 13 15 11.6569 15 10C15 8.34315 13.6569 7 12 7C10.3431 7 9 8.34315 9 10C9 11.6569 10.3431 13 12 13Z" fill="white" style="fill:white;fill-opacity:1;"/>
</svg>
