<svg width="16" height="16" viewBox="0 0 16 16" fill="none" xmlns="http://www.w3.org/2000/svg"><circle cx="8" cy="8" r="8" fill="#004DFF" style="fill:#004dff;fill:color(display-p3 0 .3 1);fill-opacity:1"/><g clip-path="url(#a)"><path fill-rule="evenodd" clip-rule="evenodd" d="M12.444 7.657a.707.707 0 0 0-.71-.703h-.179v2.815h.178a.707.707 0 0 0 .711-.704zm-2.133-1.935c.39 0 .707.312.711.697v3.884a.71.71 0 0 1-.711.697.707.707 0 0 1-.711-.704v-3.87c0-.389.318-.704.711-.704m-1.245 1.76H6.933V9.24h2.133zM5.69 5.722c.39 0 .707.312.71.697v3.884a.71.71 0 0 1-.71.697.707.707 0 0 1-.711-.704v-3.87c0-.389.318-.704.71-.704M4.444 6.954h-.177a.707.707 0 0 0-.712.704v1.407c0 .389.319.704.712.704h.177z" fill="#fff" style="fill:#fff;fill-opacity:1"/></g><defs><clipPath id="a"><path fill="#fff" style="fill:#fff;fill-opacity:1" transform="translate(3 3.5)" d="M0 0h10v10H0z"/></clipPath></defs></svg>