<svg width="24" height="24" viewBox="0 0 24 24" fill="none" xmlns="http://www.w3.org/2000/svg">
<path d="M16.7996 14.9019H7.19979C7.19979 12.251 9.34877 10.102 11.9997 10.102C14.6506 10.102 16.7996 12.251 16.7996 14.9019Z" fill="#A3BCFD" style="fill:#A3BCFD;fill:color(display-p3 0.6393 0.7375 0.9929);fill-opacity:1;"/>
<path d="M18.8566 20.1001C19.3537 20.1001 19.7566 19.6972 19.7566 19.2001C19.7566 18.7031 19.3537 18.3001 18.8566 18.3001V20.1001ZM5.14269 18.3001C4.64564 18.3001 4.24269 18.7031 4.24269 19.2001C4.24269 19.6972 4.64564 20.1001 5.14269 20.1001V18.3001ZM2.3999 14.0019C1.90285 14.0019 1.4999 14.4048 1.4999 14.9019C1.4999 15.3989 1.90285 15.8019 2.3999 15.8019V14.0019ZM21.5994 15.8019C22.0965 15.8019 22.4994 15.3989 22.4994 14.9019C22.4994 14.4048 22.0965 14.0019 21.5994 14.0019V15.8019ZM4.30061 11.9651C4.71419 12.2408 5.27297 12.1291 5.54869 11.7155C5.82441 11.3019 5.71265 10.7431 5.29907 10.4674L4.30061 11.9651ZM3.24198 9.09601C2.82841 8.82029 2.26962 8.93205 1.99391 9.34563C1.71819 9.7592 1.82995 10.318 2.24352 10.5937L3.24198 9.09601ZM8.19297 7.41526C8.41328 7.86082 8.95308 8.04343 9.39865 7.82312C9.84421 7.60281 10.0268 7.06302 9.80651 6.61745L8.19297 7.41526ZM8.71071 4.40124C8.49041 3.95567 7.95061 3.77307 7.50504 3.99338C7.05947 4.21368 6.87687 4.75348 7.09718 5.19905L8.71071 4.40124ZM13.8738 6.35776C13.5981 6.77133 13.7099 7.33012 14.1234 7.60583C14.537 7.88155 15.0958 7.7698 15.3715 7.35622L13.8738 6.35776ZM16.7429 5.29913C17.0186 4.88555 16.9069 4.32677 16.4933 4.05105C16.0797 3.77533 15.5209 3.88709 15.2452 4.30067L16.7429 5.29913ZM21.7578 10.6516C22.2033 10.4313 22.3859 9.89152 22.1656 9.44595C21.9453 9.00039 21.4055 8.81778 20.96 9.03809L21.7578 10.6516ZM18.7437 10.1339C18.2982 10.3542 18.1156 10.894 18.3359 11.3396C18.5562 11.7851 19.096 11.9677 19.5416 11.7474L18.7437 10.1339ZM18.8566 18.3001H5.14269V20.1001H18.8566V18.3001ZM2.3999 15.8019H7.19979V14.0019H2.3999V15.8019ZM7.19979 15.8019H16.7996V14.0019H7.19979V15.8019ZM16.7996 15.8019H21.5994V14.0019H16.7996V15.8019ZM8.09979 14.9019C8.09979 12.748 9.84582 11.002 11.9997 11.002V9.20199C8.85171 9.20199 6.29979 11.7539 6.29979 14.9019H8.09979ZM11.9997 11.002C14.1535 11.002 15.8996 12.748 15.8996 14.9019H17.6996C17.6996 11.7539 15.1476 9.20199 11.9997 9.20199V11.002ZM5.29907 10.4674L3.24198 9.09601L2.24352 10.5937L4.30061 11.9651L5.29907 10.4674ZM9.80651 6.61745L8.71071 4.40124L7.09718 5.19905L8.19297 7.41526L9.80651 6.61745ZM15.3715 7.35622L16.7429 5.29913L15.2452 4.30067L13.8738 6.35776L15.3715 7.35622ZM20.96 9.03809L18.7437 10.1339L19.5416 11.7474L21.7578 10.6516L20.96 9.03809Z" fill="#A3BCFD" style="fill:#A3BCFD;fill:color(display-p3 0.6393 0.7375 0.9929);fill-opacity:1;"/>
</svg>
