<svg width="60" height="30" viewBox="0 0 60 30" fill="current" xmlns="http://www.w3.org/2000/svg">
<path d="M55.2314 15.1033C55.3904 14.6841 55.6433 14.4022 55.9903 14.2577C56.3372 14.1131 56.6696 14.077 56.9876 14.1492C57.3056 14.2215 57.5586 14.3877 57.7465 14.6479C57.9489 14.8937 57.985 15.2117 57.8549 15.6019C57.2334 17.3943 56.3733 18.782 55.2747 19.7649C54.1762 20.7334 52.9258 21.2176 51.5237 21.2176C50.96 21.2176 50.4252 21.1381 49.9192 20.9791C49.4133 20.8201 48.9652 20.5889 48.5749 20.2853C48.1991 19.9818 47.8956 19.6132 47.6643 19.1795C47.433 18.7459 47.3174 18.2544 47.3174 17.7051C47.3174 17.257 47.4041 16.7728 47.5776 16.2524V16.2741C47.7366 15.8115 47.8883 15.3851 48.0329 14.9948C48.1774 14.5901 48.3148 14.1926 48.4449 13.8023C48.5894 13.412 48.7339 13.0218 48.8785 12.6315C49.023 12.2268 49.1748 11.7931 49.3338 11.3306H48.6183C48.3003 11.3306 48.0546 11.2005 47.8811 10.9403C47.7077 10.6656 47.6354 10.3693 47.6643 10.0513C47.7077 9.71885 47.8594 9.42253 48.1196 9.16234C48.3798 8.8877 48.7845 8.75038 49.3338 8.75038H50.2445L51.8923 4.17544C52.0658 3.62616 52.3476 3.26479 52.7379 3.09133C53.1427 2.91787 53.5329 2.88174 53.9088 2.98292C54.2846 3.06965 54.5881 3.27202 54.8194 3.59002C55.0651 3.89357 55.123 4.25494 54.9929 4.67413L53.5618 8.75038H54.5375C55.0001 8.75038 55.3253 8.8877 55.5132 9.16234C55.7012 9.42253 55.7662 9.71885 55.7084 10.0513C55.665 10.3693 55.4988 10.6656 55.2097 10.9403C54.9206 11.2005 54.5303 11.3306 54.0389 11.3306H52.6295L50.5697 17.098C50.5119 17.2281 50.483 17.3871 50.483 17.575C50.483 17.8641 50.5914 18.1099 50.8082 18.3122C51.0395 18.5146 51.3503 18.6158 51.7405 18.6158C52.3766 18.6158 53.0053 18.3339 53.6269 17.7702C54.2629 17.192 54.7977 16.303 55.2314 15.1033Z" fill="current" />
<path d="M38.998 5.21605C39.2293 4.56558 39.5545 4.00907 39.9737 3.54652C40.4074 3.06951 40.8844 2.68646 41.4047 2.39736C41.9396 2.10827 42.4961 1.89867 43.0743 1.76858C43.6525 1.62403 44.209 1.55176 44.7438 1.55176C45.4087 1.55176 46.0014 1.66017 46.5217 1.87699C47.0566 2.09381 47.5047 2.37568 47.866 2.7226C48.2274 3.06951 48.502 3.46702 48.6899 3.91512C48.8923 4.36321 48.9935 4.82577 48.9935 5.30278C48.979 6.08333 48.7839 6.70489 48.4081 7.16744C48.0323 7.61554 47.5769 7.89018 47.0421 7.99136H47.0638C46.9915 8.00582 46.9192 8.02028 46.847 8.03473C46.7891 8.03473 46.7241 8.03473 46.6518 8.03473C46.1459 8.03473 45.7195 7.86127 45.3726 7.51436C45.0257 7.16744 44.8522 6.74825 44.8522 6.25679C44.8522 5.8376 44.9751 5.47623 45.2208 5.17268C45.4665 4.86913 45.7773 4.65954 46.1531 4.5439C45.9941 4.42826 45.8134 4.3343 45.6111 4.26203C45.4087 4.1753 45.1847 4.13194 44.9389 4.13194C44.7221 4.13194 44.4692 4.16807 44.1801 4.24035C43.9054 4.29817 43.6235 4.40658 43.3345 4.56558C43.0598 4.72458 42.7924 4.94863 42.5322 5.23773C42.2865 5.51237 42.0841 5.87374 41.9251 6.32184L41.0795 8.75024H41.9902C42.3949 8.75024 42.7057 8.87311 42.9225 9.11884C43.1393 9.36457 43.2405 9.63921 43.226 9.94276C43.226 10.2463 43.1032 10.5354 42.8574 10.81C42.6117 11.0847 42.2359 11.2509 41.73 11.3087L40.1689 11.3304L35.4421 24.665C35.182 25.3877 34.8856 25.9587 34.5532 26.3779C34.2063 26.8115 33.8377 27.144 33.4474 27.3752C33.0571 27.621 32.6524 27.78 32.2332 27.8522C31.7995 27.9245 31.3659 27.9607 30.9322 27.9607C30.3974 27.9607 29.8915 27.8306 29.4145 27.5704C28.9375 27.3102 28.5472 26.956 28.2437 26.5079C27.9256 26.0598 27.7233 25.5467 27.6366 24.9685C27.5354 24.3903 27.6076 23.776 27.8534 23.1255C28.0991 22.4895 28.4388 22.0776 28.8724 21.8896C29.2916 21.7162 29.6891 21.6945 30.065 21.8246C30.4263 21.9547 30.701 22.1932 30.8889 22.5401C31.0768 22.9015 31.0623 23.299 30.8455 23.7326C30.6431 24.1085 30.5709 24.4337 30.6287 24.7083C30.6865 24.983 30.8817 25.1347 31.2141 25.1637C31.402 25.1781 31.5899 25.1058 31.7778 24.9468C31.9658 24.8023 32.1103 24.5927 32.2115 24.318V24.3397L36.8298 11.3304C36.7431 11.3304 36.6708 11.3376 36.613 11.3521C36.5552 11.3521 36.5118 11.3521 36.4829 11.3521H36.3745C35.9986 11.3521 35.7095 11.222 35.5072 10.9618C35.3193 10.6872 35.2398 10.3909 35.2687 10.0729C35.312 9.74039 35.4855 9.43684 35.7891 9.1622C36.0926 8.88756 36.5552 8.75024 37.1767 8.75024H37.7621L38.998 5.21605ZM44.6571 17.5532C44.6137 17.6833 44.592 17.7989 44.592 17.9001C44.592 18.1025 44.6643 18.2759 44.8088 18.4205C44.9678 18.565 45.1702 18.6373 45.4159 18.6373C45.6328 18.6373 45.864 18.5795 46.1098 18.4639C46.3555 18.3338 46.6085 18.1242 46.8686 17.8351C47.1288 17.546 47.389 17.1702 47.6492 16.7076C47.9238 16.2306 48.1913 15.6379 48.4514 14.9297C48.596 14.5249 48.8417 14.2503 49.1886 14.1057C49.5356 13.9612 49.8752 13.9251 50.2077 13.9973C50.5402 14.0551 50.8076 14.2142 51.0099 14.4743C51.2123 14.7201 51.2484 15.0381 51.1184 15.4284C50.7425 16.5558 50.3161 17.4882 49.8391 18.2254C49.3621 18.9625 48.8634 19.5552 48.343 20.0033C47.8227 20.4514 47.2878 20.7622 46.7386 20.9356C46.2037 21.1235 45.6689 21.2175 45.1341 21.2175C44.6282 21.2175 44.1511 21.1452 43.703 21.0007C43.2694 20.8561 42.8791 20.6465 42.5322 20.3719C42.1998 20.0972 41.9323 19.7648 41.73 19.3745C41.5421 18.9698 41.4481 18.5145 41.4481 18.0085C41.4481 17.8206 41.4698 17.5966 41.5131 17.3364C41.571 17.0762 41.636 16.8377 41.7083 16.6209C41.8817 16.115 42.0624 15.5801 42.2503 15.0164C42.4527 14.4527 42.6551 13.8889 42.8574 13.3252C43.0598 12.747 43.255 12.176 43.4429 11.6123C43.6452 11.0341 43.8331 10.492 44.0066 9.98613C44.209 9.39348 44.5125 8.98152 44.9172 8.75024C45.3364 8.51897 45.7339 8.44669 46.1098 8.53342C46.4856 8.62015 46.7819 8.85865 46.9987 9.24893C47.2156 9.62476 47.23 10.1234 47.0421 10.745L44.6571 17.5532Z" fill="current"/>
<path d="M35.7964 14.9297C35.9121 14.5394 36.1361 14.2792 36.4686 14.1491C36.8155 14.019 37.1552 13.9901 37.4876 14.0624C37.8201 14.1346 38.0947 14.2936 38.3116 14.5394C38.5284 14.7851 38.5717 15.0887 38.4416 15.45C37.8056 17.2858 36.9745 18.7096 35.9482 19.7214C34.9364 20.7188 33.8378 21.2175 32.6525 21.2175C32.2044 21.2175 31.778 21.138 31.3733 20.979C30.983 20.8344 30.6361 20.6321 30.3325 20.3719C30.029 20.0972 29.7905 19.772 29.617 19.3962C29.4435 19.0059 29.3568 18.5723 29.3568 18.0953C29.3568 17.6761 29.4435 17.2135 29.617 16.7076L30.571 14.0624C30.6577 13.8022 30.665 13.5926 30.5927 13.4336C30.5349 13.2601 30.4337 13.1228 30.2891 13.0216C30.1446 12.906 29.9711 12.8193 29.7688 12.7614C29.5809 12.7036 29.4002 12.6458 29.2267 12.588L28.0125 15.8403C27.8824 16.2306 27.6439 16.5125 27.297 16.6859C26.9645 16.8594 26.6321 16.9244 26.2996 16.8811C25.9816 16.8232 25.7142 16.6642 25.4974 16.404C25.295 16.1439 25.2661 15.7825 25.4107 15.3199L26.9935 11.0485C26.6321 10.6004 26.4514 10.0873 26.4514 9.50911C26.4514 9.35011 26.4659 9.17665 26.4948 8.98874C26.5381 8.80083 26.5959 8.62737 26.6682 8.46836C26.7839 8.07809 27.0007 7.76008 27.3187 7.51435C27.6511 7.26862 28.0414 7.14575 28.4895 7.14575C28.7786 7.14575 29.0533 7.21803 29.3134 7.36257C29.5736 7.49267 29.7905 7.67335 29.9639 7.90463C30.1374 8.12145 30.253 8.37441 30.3108 8.6635C30.3831 8.93815 30.3686 9.22724 30.2675 9.53079C30.571 9.61752 30.9396 9.74761 31.3733 9.92107C31.8069 10.0801 32.2261 10.2897 32.6308 10.5499C33.0356 10.81 33.3752 11.128 33.6499 11.5039C33.939 11.8652 34.0835 12.3061 34.0835 12.8265C34.0835 13.0144 34.0618 13.2095 34.0185 13.4119C33.9896 13.5998 33.939 13.8022 33.8667 14.019L32.5875 17.5749C32.5296 17.7339 32.5007 17.8929 32.5007 18.0519C32.5007 18.2109 32.5369 18.3482 32.6091 18.4639C32.6814 18.565 32.7971 18.6156 32.9561 18.6156C33.1873 18.6156 33.4258 18.5217 33.6716 18.3338C33.9173 18.1458 34.163 17.8929 34.4088 17.5749C34.6545 17.2424 34.893 16.8521 35.1243 16.404C35.37 15.9559 35.5941 15.4645 35.7964 14.9297Z" fill="current" />
<path d="M25.7779 15.0166C25.9079 14.5974 26.1392 14.3155 26.4717 14.1709C26.8186 14.0264 27.1511 13.9903 27.4691 14.0625C27.8015 14.1348 28.0689 14.301 28.2713 14.5612C28.4881 14.807 28.5315 15.125 28.4014 15.5152C28.0111 16.6427 27.5775 17.5823 27.1005 18.3339C26.6235 19.0711 26.1248 19.6638 25.6044 20.1119C25.084 20.5455 24.5564 20.8491 24.0216 21.0225C23.4868 21.2104 22.9592 21.3044 22.4388 21.3044C21.7883 21.3044 21.1885 21.1671 20.6392 20.8924C20.0899 20.6322 19.6562 20.2709 19.3382 19.8083C18.9335 20.242 18.4565 20.6033 17.9072 20.8924C17.3724 21.1815 16.7797 21.3261 16.1293 21.3261C15.6667 21.3261 15.2403 21.2538 14.85 21.1092C14.4598 20.9647 14.1128 20.7623 13.8093 20.5021C13.5202 20.242 13.2961 19.9312 13.1371 19.5698C12.9637 19.2084 12.877 18.8109 12.877 18.3773C12.877 18.0015 12.942 17.6184 13.0721 17.2281L15.739 9.76947C15.8691 9.39364 16.0498 9.11177 16.2811 8.92386C16.5268 8.72149 16.7797 8.59863 17.0399 8.55526C17.3146 8.5119 17.582 8.53358 17.8422 8.62031C18.1024 8.70704 18.3192 8.85159 18.4926 9.05395C18.6806 9.24187 18.8034 9.48037 18.8612 9.76947C18.9191 10.0441 18.8829 10.3549 18.7528 10.7018L16.2594 17.5317C16.1871 17.7774 16.151 17.9798 16.151 18.1388C16.151 18.5002 16.3172 18.6808 16.6497 18.6808C16.8665 18.6808 17.0905 18.623 17.3218 18.5074C17.5531 18.3917 17.7844 18.24 18.0156 18.0521C18.2469 17.8497 18.4565 17.6184 18.6444 17.3582C18.8468 17.098 19.0275 16.8162 19.1865 16.5126L21.5715 9.79115C21.7739 9.22741 22.0774 8.85881 22.4822 8.68536C22.8869 8.49744 23.2772 8.46854 23.653 8.59863C24.0288 8.71427 24.3251 8.95277 24.542 9.31414C24.7588 9.66106 24.7805 10.0802 24.607 10.5717L22.0268 17.8786C21.9835 17.9942 21.9618 18.1027 21.9618 18.2038C21.9618 18.3628 22.0196 18.4929 22.1352 18.5941C22.2509 18.6808 22.4099 18.7242 22.6123 18.7242C23.1037 18.7242 23.6313 18.4351 24.195 17.8569C24.7588 17.2643 25.2864 16.3175 25.7779 15.0166Z" fill="current" />
<path d="M11.4356 16.686C11.4789 16.7005 11.5295 16.7077 11.5873 16.7077C11.6451 16.7077 11.6957 16.7077 11.7391 16.7077C12.3896 16.7077 12.9461 16.4981 13.4086 16.0789C13.8856 15.6597 14.247 15.1105 14.4927 14.4311C14.6373 13.9541 14.883 13.6288 15.2299 13.4554C15.5768 13.2819 15.9093 13.2386 16.2273 13.3253C16.5598 13.3976 16.82 13.5999 17.0079 13.9324C17.1958 14.2504 17.203 14.6696 17.0296 15.19C16.8416 15.7537 16.5815 16.2885 16.249 16.7944C15.9165 17.2859 15.519 17.7195 15.0565 18.0954C14.5939 18.4567 14.0808 18.7458 13.517 18.9627C12.9533 19.1795 12.3534 19.2879 11.7174 19.2879C11.2693 19.2879 10.8357 19.2301 10.4165 19.1144C9.95394 19.895 9.36129 20.4587 8.63855 20.8056C7.91581 21.1526 7.12802 21.326 6.27519 21.326C5.72591 21.326 5.19831 21.2393 4.69239 21.0658C4.18647 20.9068 3.73838 20.6756 3.3481 20.372C2.95782 20.054 2.64704 19.6709 2.41576 19.2228C2.18449 18.7603 2.06885 18.2471 2.06885 17.6834C2.06885 17.4377 2.09776 17.1847 2.15558 16.9245C2.19894 16.6643 2.26399 16.3969 2.35072 16.1223L4.10697 11.2872C4.28043 10.8102 4.52616 10.3837 4.84417 10.0079C5.16217 9.61764 5.52354 9.29241 5.92828 9.03222C6.34747 8.77203 6.79556 8.5769 7.27257 8.4468C7.76403 8.30225 8.26272 8.22998 8.76864 8.22998C9.34683 8.22998 9.89612 8.31671 10.4165 8.49017C10.9513 8.66362 11.4066 8.91658 11.7825 9.24904C12.1727 9.56705 12.4691 9.95733 12.6714 10.4199C12.8883 10.868 12.975 11.3667 12.9316 11.916C12.9172 12.1328 12.8666 12.4146 12.7798 12.7616C12.6931 13.1085 12.5919 13.4626 12.4763 13.824C12.3607 14.1709 12.2378 14.5034 12.1077 14.8214C11.9776 15.1249 11.8692 15.3417 11.7825 15.4718C11.6379 15.6887 11.4934 15.8477 11.3488 15.9488C11.3922 16.1512 11.4139 16.3319 11.4139 16.4909C11.4283 16.6354 11.4356 16.7005 11.4356 16.686ZM9.41911 13.347C9.49138 13.1157 9.57811 12.8483 9.67929 12.5447C9.78048 12.2267 9.83107 11.9665 9.83107 11.7642C9.83107 11.5184 9.72989 11.3016 9.52752 11.1137C9.32515 10.9113 9.05774 10.8102 8.72528 10.8102C8.39282 10.8102 8.08204 10.9113 7.79294 11.1137C7.5183 11.3016 7.32316 11.5763 7.20753 11.9376C6.73052 13.0651 6.34747 14.0191 6.05837 14.7997C5.76927 15.5658 5.54522 16.1946 5.38622 16.686C5.34286 16.8161 5.29227 16.9968 5.23445 17.2281C5.19108 17.4449 5.18385 17.669 5.21276 17.9002C5.24167 18.1315 5.3284 18.3339 5.47295 18.5073C5.6175 18.6663 5.87046 18.7458 6.23183 18.7458C6.54983 18.7458 6.85338 18.6447 7.14248 18.4423C7.43157 18.2255 7.6484 17.9291 7.79294 17.5533C7.79294 17.5389 7.80017 17.5244 7.81463 17.51C7.61226 17.3365 7.43157 17.1414 7.27257 16.9245C7.11357 16.7077 7.02684 16.4114 7.01239 16.0356C7.01239 15.7176 7.0702 15.4212 7.18584 15.1466C7.31594 14.8575 7.48217 14.619 7.68453 14.4311C7.90135 14.2287 8.13986 14.0842 8.40005 13.9974C8.67469 13.8963 8.96378 13.8601 9.26733 13.889C9.28179 13.8023 9.30347 13.7156 9.33238 13.6288C9.36129 13.5421 9.3902 13.4482 9.41911 13.347Z" fill="current" />
</svg>
